# xmcd
#
# Track frame offsets: 
#        182
#        19370
#        33690
#        46305
#        64010
#        71697
#        92870
#        110607
#        124337
#        135530
#        152360
#        166132
#
# Disc length: 2469 seconds
#
# Revision: 0
# Processed by: cddbd v1.5PL3 Copyright (c) Steve Scherf et al.
# Submitted via: ExactAudioCopy v0.95a4
#
DISCID=a409a30c
DTITLE=Kevin Closs - Surrender
DYEAR=1993
DGENRE=Country
TTITLE0=Home
TTITLE1=Erica
TTITLE2=The Door
TTITLE3=Ready Or Not
TTITLE4=A Good Tired
TTITLE5=Sweet Surrender
TTITLE6=Like A Knife
TTITLE7=J.P.'s Guitar
TTITLE8=Good Advice
TTITLE9=Rock and Roll Band
TTITLE10=The Clouds Were Parted
TTITLE11=I Am What I Am
EXTD=
EXTT0=
EXTT1=
EXTT2=
EXTT3=
EXTT4=
EXTT5=
EXTT6=
EXTT7=
EXTT8=
EXTT9=
EXTT10=
EXTT11=
PLAYORDER=
